<svg version="1.1" id="Layer_1" xmlns="http://www.w3.org/2000/svg" xmlns:xlink="http://www.w3.org/1999/xlink" x="0px" y="0px"
	 width="100%" viewBox="0 0 128 128" enable-background="new 0 0 128 128" xml:space="preserve">
<path fill="#000000" opacity="1.000000" stroke="none" 
	d="
M90.000000,129.000000 
	C61.166668,129.000000 32.833042,128.942291 4.500430,129.085175 
	C1.515798,129.100220 0.906936,128.483170 0.916174,125.499741 
	C1.041057,85.166794 1.041057,44.833206 0.916174,4.500259 
	C0.906936,1.516842 1.516842,0.906936 4.500259,0.916174 
	C44.833206,1.041056 85.166794,1.041056 125.499741,0.916174 
	C128.483170,0.906936 129.093079,1.516842 129.083832,4.500259 
	C128.958939,44.833206 128.958954,85.166794 129.083832,125.499741 
	C129.093079,128.483170 128.490860,129.144882 125.498337,129.088928 
	C113.835747,128.870865 102.166664,129.000000 90.000000,129.000000 
z"/>
<path fill="#B93A09" opacity="1.000000" stroke="none" 
	d="
M53.891342,89.562790 
	C45.484390,89.997604 42.489807,84.743111 40.438541,77.933365 
	C40.392315,76.424263 41.474533,75.198685 40.566868,73.937202 
	C41.186863,74.972046 41.018375,76.043808 40.159492,77.378067 
	C39.593830,77.334991 38.922581,77.069603 38.534592,76.579826 
	C35.884682,73.234764 36.554020,57.228134 39.743172,53.604156 
	C40.503876,54.544758 41.395023,55.703854 40.524448,57.086494 
	C41.077187,56.006138 41.025520,54.982452 40.161285,53.709026 
	C40.429592,53.042419 41.052738,52.715538 41.081135,52.343285 
	C41.638779,45.033630 46.741596,42.355991 53.066845,40.438492 
	C54.575741,40.392529 55.801071,41.474537 57.062290,40.567158 
	C56.027725,41.187092 54.956104,41.018250 53.622021,40.159492 
	C53.407738,40.011574 53.518944,39.888630 53.631390,39.766830 
	C57.829258,35.219601 74.674377,35.854156 77.602661,41.103165 
	C75.986664,41.351513 74.633766,40.738842 73.209961,40.378929 
	C74.420998,40.621922 75.521347,41.245243 77.106865,41.435974 
	C85.274590,41.319683 88.867050,45.756477 89.723068,53.249947 
	C89.632111,55.047661 90.260338,56.405830 90.642708,57.831417 
	C90.383362,56.603733 89.754272,55.484253 89.552261,53.877983 
	C92.506195,53.176842 93.757736,55.211628 93.872177,57.569939 
	C94.130310,62.889824 94.016205,68.232246 93.908760,73.562584 
	C93.877838,75.096611 92.833977,76.262550 91.234268,77.379166 
	C90.499603,76.449707 89.586319,75.287216 90.486160,73.900970 
	C89.907570,74.984123 89.974617,76.009544 90.838806,77.289551 
	C90.571754,77.955818 89.950714,78.281288 89.920952,78.653976 
	C89.339165,85.939987 84.262794,88.645775 77.933868,90.560867 
	C76.422195,90.638512 75.203209,89.465141 74.113358,90.327393 
	C74.972328,89.812515 76.044052,89.982140 77.378395,90.840286 
	C76.198654,93.036552 74.270569,94.431557 71.485924,93.990433 
	C67.466248,93.353638 63.464943,93.579796 59.443439,93.978752 
	C56.559986,94.264816 54.263973,93.325073 53.396942,89.894852 
	C55.013668,89.654457 56.373173,90.255081 57.797012,90.627815 
	C56.585045,90.375542 55.480164,89.756866 53.891342,89.562790 
z"/>
<path fill="#000000" opacity="1.000000" stroke="none" 
	d="
M86.987434,61.509769 
	C87.506493,67.865311 86.657570,73.326561 83.042084,78.385971 
	C77.193398,86.570496 65.987923,89.298859 57.581520,85.759598 
	C42.541229,79.427322 39.803265,62.893955 49.257355,50.454365 
	C53.063042,45.446884 65.917686,42.247364 72.129913,44.617855 
	C79.896858,47.581600 84.868141,53.026814 86.987434,61.509769 
z"/>
<path fill="#000000" opacity="1.000000" stroke="none" 
	d="
M40.061127,53.393288 
	C42.884285,56.945312 42.811115,58.178539 39.492279,63.206192 
	C36.051723,59.699356 39.376202,57.044052 40.335258,53.731041 
	C40.049240,53.330265 40.038898,53.396149 40.061127,53.393288 
z"/>
<path fill="#000000" opacity="1.000000" stroke="none" 
	d="
M40.148663,77.662781 
	C41.513794,75.910934 39.440289,75.097534 38.909550,73.957962 
	C37.842419,71.666695 37.486092,69.690277 39.636410,67.677429 
	C41.079651,70.718719 44.319607,73.533470 40.117157,77.256020 
	C40.201031,77.716896 40.163311,77.621368 40.148663,77.662781 
z"/>
<path fill="#000000" opacity="1.000000" stroke="none" 
	d="
M90.939240,77.606064 
	C87.882156,74.149818 88.757111,70.923126 91.509811,67.793854 
	C94.947395,71.299515 91.622269,73.954941 90.664917,77.268425 
	C90.950706,77.669235 90.960968,77.603775 90.939240,77.606064 
z"/>
<path fill="#000000" opacity="1.000000" stroke="none" 
	d="
M77.663162,90.850655 
	C75.911346,89.484596 75.089622,91.550804 73.960648,92.090797 
	C71.662109,93.190170 69.695496,93.472832 67.657234,91.372017 
	C70.721214,89.929100 73.535248,86.676422 77.256477,90.883064 
	C77.717300,90.798187 77.621765,90.835869 77.663162,90.850655 
z"/>
<path fill="#000000" opacity="1.000000" stroke="none" 
	d="
M53.337421,40.148499 
	C55.089020,41.511936 55.901638,39.439514 57.041351,38.908794 
	C59.331955,37.842136 61.308220,37.485714 63.322216,39.638618 
	C60.278610,41.057804 57.466923,44.328030 53.744057,40.117714 
	C53.283314,40.200760 53.378891,40.163006 53.337421,40.148499 
z"/>
<path fill="#000000" opacity="1.000000" stroke="none" 
	d="
M89.497543,53.554497 
	C91.310760,56.446358 94.920395,58.937450 91.608589,63.199368 
	C88.972717,60.666481 88.644653,57.614918 89.365982,53.928078 
	C89.517960,53.549446 89.514107,53.571438 89.497543,53.554497 
z"/>
<path fill="#000000" opacity="1.000000" stroke="none" 
	d="
M77.437927,41.495567 
	C73.845680,42.713898 70.659546,41.906616 67.706497,39.504578 
	C71.445442,36.295834 74.048531,38.945499 77.100494,41.313553 
	C77.460663,41.531246 77.426704,41.497639 77.437927,41.495567 
z"/>
<path fill="#000000" opacity="1.000000" stroke="none" 
	d="
M53.560581,89.502014 
	C57.151154,88.297493 60.345394,89.071518 63.288261,91.500992 
	C59.555046,94.703156 56.950798,92.053764 53.897995,89.684830 
	C53.538074,89.466377 53.572201,89.500130 53.560581,89.502014 
z"/>
<path fill="#000000" opacity="1.000000" stroke="none" 
	d="
M46.468273,81.731781 
	C49.075119,82.512100 49.069767,84.963402 51.258022,86.839294 
	C46.631207,87.183235 44.500549,85.281700 44.143986,81.918533 
	C43.865822,79.294891 45.379303,81.238953 46.468273,81.731781 
z"/>
<path fill="#000000" opacity="1.000000" stroke="none" 
	d="
M44.755547,47.607506 
	C45.924732,44.771301 48.008568,44.265461 50.579979,44.101509 
	C49.486977,46.644699 48.361408,48.775093 45.846180,49.693020 
	C45.297287,49.893341 44.648190,51.326340 44.158184,49.740704 
	C43.998814,49.224991 44.424492,48.528481 44.755547,47.607506 
z"/>
<path fill="#000000" opacity="1.000000" stroke="none" 
	d="
M85.214401,45.784805 
	C85.978828,47.367958 87.296524,48.432686 86.808098,50.091736 
	C83.220299,49.849178 81.912041,47.092300 80.501060,44.420120 
	C82.339584,43.392700 83.515175,45.008778 85.214401,45.784805 
z"/>
<path fill="#000000" opacity="1.000000" stroke="none" 
	d="
M85.092918,81.343048 
	C85.996078,80.782143 87.058327,79.919907 86.855492,81.504784 
	C86.396431,85.091721 84.097321,86.721962 80.181213,87.014732 
	C81.689629,84.708435 82.264526,82.293549 85.092918,81.343048 
z"/>
<path fill="#B93B0B" opacity="1.000000" stroke="none" 
	d="
M57.000828,75.690331 
	C56.659412,77.436684 57.814400,79.663719 55.569386,79.741470 
	C53.210995,79.823158 54.070442,77.550171 54.054081,76.279732 
	C53.959682,68.952003 53.970493,61.622021 54.049324,54.293919 
	C54.061520,53.160187 53.304489,51.359131 55.412525,51.156246 
	C57.010883,51.002415 57.473324,52.187042 58.071354,53.531639 
	C60.273838,58.483624 62.716682,63.328701 65.481133,69.069626 
	C68.216141,63.435383 70.685814,58.555622 72.934326,53.576004 
	C73.529449,52.258034 73.944656,51.016483 75.565765,51.156048 
	C77.684418,51.338440 76.939613,53.137680 76.951508,54.271763 
	C77.028381,61.599907 76.899864,68.930992 77.039436,76.257286 
	C77.091400,78.984879 76.333748,80.245827 73.406517,80.031029 
	C68.408554,79.664276 63.332352,80.538719 58.360760,79.015678 
	C62.225079,77.381767 66.289513,78.090080 70.246353,78.063576 
	C72.952477,78.045448 74.162315,77.367821 74.046478,74.425117 
	C73.850731,69.452644 73.992760,64.466873 73.992760,58.314194 
	C70.330505,63.807747 69.152824,69.410622 65.534035,73.912453 
	C61.860584,69.489792 60.628284,63.943233 57.001640,59.480331 
	C57.001640,64.728813 57.001640,69.977287 57.000828,75.690331 
z"/>
</svg>